<svg xmlns="http://www.w3.org/2000/svg" width="700" height="400" viewBox="0 0 700 400">
  <defs>
    <linearGradient id="bg" x1="0" y1="0" x2="0" y2="1">
      <stop offset="0%" stop-color="#0f172a"/>
      <stop offset="100%" stop-color="#1e293b"/>
    </linearGradient>
    <linearGradient id="bar" x1="0" y1="0" x2="1" y2="0">
      <stop offset="0%" stop-color="#10b981"/>
      <stop offset="100%" stop-color="#34d399"/>
    </linearGradient>
  </defs>
  <rect width="700" height="400" rx="20" fill="url(#bg)"/>
  <rect x="20" y="20" width="660" height="360" rx="14"
        fill="none" stroke="#334155" stroke-width="1"/>

  <text x="50" y="70" fill="#f1f5f9" font-family="ui-monospace,Menlo,monospace"
        font-size="28" font-weight="700">🚂 ATrain Save Receipt</text>
  <text x="50" y="100" fill="#94a3b8" font-family="ui-monospace,Menlo,monospace"
        font-size="14">Wed 13 May 2026 · mode: balanced</text>

  <text x="50" y="170" fill="#10b981" font-family="ui-monospace,Menlo,monospace"
        font-size="64" font-weight="700">$1402.30</text>
  <text x="50" y="200" fill="#94a3b8" font-family="ui-monospace,Menlo,monospace"
        font-size="14">saved vs all-Opus baseline (96.0%)</text>

  <rect x="50" y="225" width="540" height="20" rx="10" fill="#1e293b"/>
  <rect x="50" y="225" width="518" height="20" rx="10" fill="url(#bar)"/>

  <!-- v9.5: tier mix bar (Haiku / Sonnet / Opus) -->
  <rect x="50" y="260" width="540" height="10" rx="5" fill="#1e293b"/>
  <rect x="50" y="260" width="188" height="10" rx="5" fill="#10b981"/>
  <rect x="238" y="260" width="288" height="10" fill="#3b82f6"/>
  <rect x="526" y="260" width="64" height="10" rx="5" fill="#a855f7"/>
  <text x="50" y="285" fill="#94a3b8"
        font-family="ui-monospace,Menlo,monospace" font-size="11">
    <tspan fill="#10b981">█ Haiku 35%</tspan> <tspan>·</tspan>
    <tspan fill="#3b82f6">█ Sonnet 53%</tspan> <tspan>·</tspan>
    <tspan fill="#a855f7">█ Opus 12%</tspan>
  </text>

  <text x="50" y="315" fill="#cbd5e1" font-family="ui-monospace,Menlo,monospace"
        font-size="14">1180 tool calls · $58.57 actual · $1460.87 baseline</text>

  <text x="50" y="355" fill="#64748b" font-family="ui-monospace,Menlo,monospace"
        font-size="12">github.com/LeonardoCalancea/atrain-claude · /atrain-receipt</text>
</svg>